<svg width="400" height="300" xmlns="http://www.w3.org/2000/svg">
  <rect width="400" height="300" fill="#f0f9ff"/>
  <g transform="translate(200, 150)">
    <!-- Plate -->
    <ellipse cx="0" cy="20" rx="80" ry="15" fill="#e0e7ff" stroke="#818cf8" stroke-width="2"/>
    <!-- Food items -->
    <circle cx="-20" cy="10" r="15" fill="#fbbf24"/>
    <circle cx="20" cy="10" r="12" fill="#34d399"/>
    <rect x="-10" y="-5" width="20" height="15" rx="3" fill="#f87171"/>
    <!-- AI sparkles -->
    <path d="M-60,-30 l5,10 l10,-5 l-5,10 l10,5 l-10,-5 l-5,10 l5,-10 l-10,-5 l10,5 z" fill="#818cf8" opacity="0.7"/>
    <path d="M60,-25 l3,6 l6,-3 l-3,6 l6,3 l-6,-3 l-3,6 l3,-6 l-6,-3 l6,3 z" fill="#a78bfa" opacity="0.7"/>
  </g>
  <text x="200" y="250" text-anchor="middle" font-family="system-ui" font-size="18" font-weight="bold" fill="#475569">AI Food Recommendation</text>
</svg>